<svg width="32" height="36" viewBox="0 0 32 36" fill="none" xmlns="http://www.w3.org/2000/svg">
<path d="M15.7117 2.21154C17.1781 2.21154 18.5844 2.79404 19.6212 3.8309C20.6581 4.86776 21.2406 6.27404 21.2406 7.74038V8.84615H10.1829V7.74038C10.1829 6.27404 10.7654 4.86776 11.8022 3.8309C12.8391 2.79404 14.2454 2.21154 15.7117 2.21154ZM23.4521 8.84615V7.74038C23.4521 5.68751 22.6366 3.71871 21.185 2.26711C19.7334 0.815502 17.7646 0 15.7117 0C13.6588 0 11.6901 0.815502 10.2384 2.26711C8.78684 3.71871 7.97134 5.68751 7.97134 7.74038V8.84615H0.230957V30.9615C0.230957 32.1346 0.696959 33.2596 1.52645 34.0891C2.35593 34.9186 3.48096 35.3846 4.65403 35.3846H26.7694C27.9425 35.3846 29.0675 34.9186 29.897 34.0891C30.7265 33.2596 31.1925 32.1346 31.1925 30.9615V8.84615H23.4521ZM2.4425 11.0577H28.981V30.9615C28.981 31.5481 28.748 32.1106 28.3332 32.5253C27.9185 32.9401 27.356 33.1731 26.7694 33.1731H4.65403C4.0675 33.1731 3.50498 32.9401 3.09024 32.5253C2.6755 32.1106 2.4425 31.5481 2.4425 30.9615V11.0577Z" fill="white"/>
</svg>
