<svg width="202" height="28" viewBox="0 0 202 28" fill="none" xmlns="http://www.w3.org/2000/svg">
<path d="M10.656 27.288L18.144 8.316L24.948 27.288H25.668L32.184 7.272C33.192 4.212 34.02 2.52 35.712 0.719999V0.647998H30.96V0.719999C31.716 1.908 32.4 4.284 31.032 8.46L26.928 20.988L21.888 6.696C20.952 4.032 21.348 1.728 21.96 0.719999V0.647998H14.436V0.719999C15.696 2.016 16.38 3.384 17.496 6.516L17.784 7.272L12.204 21.276L7.56 6.696C6.696 4.032 6.984 1.8 7.632 0.719999V0.647998H0.108V0.719999C1.368 2.016 2.16 3.384 3.168 6.516L9.936 27.288H10.656ZM37.5882 27H44.6082V26.928C43.4202 24.696 43.1682 23.472 43.1682 20.484V7.164C43.1682 4.176 43.4202 2.952 44.6082 0.719999V0.647998H37.5882V0.719999C38.7762 2.952 39.0282 4.176 39.0282 7.164V20.484C39.0282 23.472 38.7762 24.696 37.5882 26.928V27ZM62.7151 1.152C61.0231 0.539999 58.9711 0.107999 56.8471 0.107999C52.5271 0.107999 48.5311 2.016 48.5311 6.984C48.5311 11.664 52.3111 13.464 56.0551 15.3C59.0071 16.74 61.6351 18.468 61.6351 21.888C61.6351 24.516 60.0511 26.82 56.7751 26.82C53.4991 26.82 50.7271 24.552 47.9191 19.368L47.6311 19.476L48.3511 26.136C50.7271 27.036 53.3551 27.54 55.7671 27.54C60.8791 27.54 65.1991 25.272 65.1991 19.872C65.1991 14.904 61.4911 12.996 57.9631 11.268C54.7591 9.684 51.7351 8.28 51.7351 4.86C51.7351 2.412 53.2111 0.827998 55.6591 0.827998C58.1431 0.827998 60.6631 2.448 63.1111 7.776L63.4351 7.668L62.7151 1.152ZM68.0335 27H75.0535V26.928C73.8655 24.696 73.6135 23.472 73.6135 20.484V13.788H86.1775V20.484C86.1775 23.436 85.9255 24.696 84.7375 26.928V27H91.7575V26.928C90.6055 24.696 90.3175 23.472 90.3175 20.484V7.164C90.3175 4.176 90.6055 2.952 91.7575 0.719999V0.647998H84.7375V0.719999C85.9255 2.952 86.1775 4.212 86.1775 7.164V13.068H73.6135V7.164C73.6135 4.176 73.8655 2.952 75.0535 0.719999V0.647998H68.0335V0.719999C69.1855 2.952 69.4735 4.176 69.4735 7.164V20.484C69.4735 23.436 69.1855 24.696 68.0335 26.928V27ZM102.3 26.928C101.112 24.696 100.86 23.472 100.86 20.484V13.752H104.676C106.44 13.752 107.952 16.128 109.14 17.388H109.464V9.252H109.14C107.916 10.62 106.404 13.032 104.676 13.032H100.86V1.152L107.988 1.404C109.608 1.44 112.2 5.184 114.072 7.128L114.396 7.056L112.992 0.647998H95.2796V0.719999C96.4316 2.952 96.7196 4.176 96.7196 7.164V20.484C96.7196 23.436 96.4316 24.696 95.2796 26.928V27H102.3V26.928ZM127.286 27.54C134.162 27.54 136.394 23.112 136.394 17.964V7.812C136.394 4.572 136.898 3.24 138.986 0.719999L138.806 0.647998H132.974V0.719999C135.098 3.24 135.566 4.572 135.566 7.812V18C135.566 22.536 133.658 26.64 128.294 26.64C124.298 26.64 121.598 24.48 121.598 18.324V7.164C121.598 4.176 122.066 2.556 123.038 0.719999V0.647998H116.018V0.719999C117.206 2.952 117.458 4.176 117.458 7.164V18.432C117.458 24.912 121.958 27.54 127.286 27.54ZM158.725 27L160.309 19.872L160.021 19.764C158.005 22.824 155.233 26.136 152.245 26.28L146.809 26.496V7.164C146.809 4.176 147.061 2.952 148.249 0.719999V0.647998H141.229V0.719999C142.381 2.952 142.669 4.176 142.669 7.164V20.484C142.669 23.436 142.381 24.696 141.229 26.928V27H158.725ZM179.748 27L181.332 19.872L181.044 19.764C179.028 22.824 176.256 26.136 173.268 26.28L167.832 26.496V7.164C167.832 4.176 168.084 2.952 169.272 0.719999V0.647998H162.252V0.719999C163.404 2.952 163.692 4.176 163.692 7.164V20.484C163.692 23.436 163.404 24.696 162.252 26.928V27H179.748ZM186.428 27H193.448V26.928C192.26 25.056 192.008 24.048 192.008 21.564V14.976L196.652 6.912C198.416 3.888 199.316 2.556 201.26 0.719999V0.647998H195.896V0.719999C196.616 1.836 197.336 4.176 195.32 7.704L191.756 13.932L187.04 5.256C186.068 3.492 185.888 1.476 186.86 0.719999V0.647998H178.688V0.719999C180.128 1.764 181.28 3.276 182.648 5.688L187.868 15.012V21.564C187.868 24.012 187.58 25.056 186.428 26.928V27Z" fill="white"/>
</svg>
