<svg width="157" height="27" viewBox="0 0 157 27" fill="none" xmlns="http://www.w3.org/2000/svg">
<path d="M16.38 26.928C15.192 24.696 14.94 23.472 14.94 20.484V1.26L18.864 1.404C20.448 1.476 23.076 5.58 24.948 8.172L25.236 8.064L23.868 0.647998H1.872L0.504 8.064L0.792 8.172C2.664 5.58 5.292 1.476 6.876 1.404L10.8 1.26V20.484C10.8 23.436 10.512 24.696 9.36 26.928V27H16.38V26.928ZM27.3226 27H34.3426V26.928C33.1546 24.696 32.9026 23.472 32.9026 20.484V13.788H45.4666V20.484C45.4666 23.436 45.2146 24.696 44.0266 26.928V27H51.0466V26.928C49.8946 24.696 49.6066 23.472 49.6066 20.484V7.164C49.6066 4.176 49.8946 2.952 51.0466 0.719999V0.647998H44.0266V0.719999C45.2146 2.952 45.4666 4.212 45.4666 7.164V13.068H32.9026V7.164C32.9026 4.176 33.1546 2.952 34.3426 0.719999V0.647998H27.3226V0.719999C28.4746 2.952 28.7626 4.176 28.7626 7.164V20.484C28.7626 23.436 28.4746 24.696 27.3226 26.928V27ZM62.9567 1.368C67.3487 1.368 68.6447 3.636 68.6447 6.912C68.6447 10.44 67.4927 13.572 62.9567 13.572H60.1487V1.404C61.5527 1.368 62.4887 1.368 62.9567 1.368ZM54.5687 27H61.5887V26.928C60.4007 24.696 60.1487 23.472 60.1487 20.484V14.292H63.2807L69.7607 27H76.0967V26.748C74.2247 25.812 73.4687 25.02 71.9207 21.996L67.6367 13.608C71.2367 12.456 72.8567 9.936 72.8567 6.948C72.8567 3.168 70.2647 0.647998 63.7487 0.647998H54.5687V0.719999C55.7207 2.952 56.0087 4.176 56.0087 7.164V20.484C56.0087 23.436 55.7207 24.696 54.5687 26.928V27ZM77.8421 27H84.8621V26.928C83.6741 24.696 83.4221 23.472 83.4221 20.484V7.164C83.4221 4.176 83.6741 2.952 84.8621 0.719999V0.647998H77.8421V0.719999C79.0301 2.952 79.2821 4.176 79.2821 7.164V20.484C79.2821 23.472 79.0301 24.696 77.8421 26.928V27ZM95.409 26.928C94.221 24.696 93.969 23.472 93.969 20.484V13.752H97.785C99.549 13.752 101.061 16.128 102.249 17.388H102.573V9.252H102.249C101.025 10.62 99.513 13.032 97.785 13.032H93.969V1.152L101.097 1.404C102.717 1.44 105.309 5.184 107.181 7.128L107.505 7.056L106.101 0.647998H88.389V0.719999C89.541 2.952 89.829 4.176 89.829 7.164V20.484C89.829 23.436 89.541 24.696 88.389 26.928V27H95.409V26.928ZM124.943 26.928C123.755 24.696 123.503 23.472 123.503 20.484V1.26L127.427 1.404C129.011 1.476 131.639 5.58 133.511 8.172L133.799 8.064L132.431 0.647998H110.435L109.067 8.064L109.355 8.172C111.227 5.58 113.854 1.476 115.439 1.404L119.363 1.26V20.484C119.363 23.436 119.075 24.696 117.923 26.928V27H124.943V26.928ZM142.096 27H149.116V26.928C147.928 25.056 147.676 24.048 147.676 21.564V14.976L152.32 6.912C154.084 3.888 154.984 2.556 156.928 0.719999V0.647998H151.564V0.719999C152.284 1.836 153.004 4.176 150.988 7.704L147.424 13.932L142.708 5.256C141.736 3.492 141.556 1.476 142.528 0.719999V0.647998H134.356V0.719999C135.796 1.764 136.948 3.276 138.316 5.688L143.536 15.012V21.564C143.536 24.012 143.248 25.056 142.096 26.928V27Z" fill="black"/>
</svg>
